<?xml version="1.0" standalone="no"?>
<svg xmlns:xlink="http://www.w3.org/1999/xlink" id="wave" style="transform:rotate(0deg); transition: 0.3s" viewBox="0 0 1440 430" version="1.1" xmlns="http://www.w3.org/2000/svg"><defs><linearGradient id="sw-gradient-0" x1="0" x2="0" y1="1" y2="0"><stop stop-color="rgba(178, 178, 178, 0)" offset="0%"/><stop stop-color="rgba(219, 219, 219, 0.36)" offset="100%"/></linearGradient></defs><path style="transform:translate(0, 0px); opacity:1" fill="url(#sw-gradient-0)" d="M0,301L60,258C120,215,240,129,360,100.3C480,72,600,100,720,150.5C840,201,960,272,1080,250.8C1200,229,1320,115,1440,86C1560,57,1680,115,1800,121.8C1920,129,2040,86,2160,57.3C2280,29,2400,14,2520,43C2640,72,2760,143,2880,200.7C3000,258,3120,301,3240,279.5C3360,258,3480,172,3600,157.7C3720,143,3840,201,3960,186.3C4080,172,4200,86,4320,57.3C4440,29,4560,57,4680,107.5C4800,158,4920,229,5040,222.2C5160,215,5280,129,5400,129C5520,129,5640,215,5760,258C5880,301,6000,301,6120,315.3C6240,330,6360,358,6480,358.3C6600,358,6720,330,6840,272.3C6960,215,7080,129,7200,143.3C7320,158,7440,272,7560,315.3C7680,358,7800,330,7920,322.5C8040,315,8160,330,8280,301C8400,272,8520,201,8580,164.8L8640,129L8640,430L8580,430C8520,430,8400,430,8280,430C8160,430,8040,430,7920,430C7800,430,7680,430,7560,430C7440,430,7320,430,7200,430C7080,430,6960,430,6840,430C6720,430,6600,430,6480,430C6360,430,6240,430,6120,430C6000,430,5880,430,5760,430C5640,430,5520,430,5400,430C5280,430,5160,430,5040,430C4920,430,4800,430,4680,430C4560,430,4440,430,4320,430C4200,430,4080,430,3960,430C3840,430,3720,430,3600,430C3480,430,3360,430,3240,430C3120,430,3000,430,2880,430C2760,430,2640,430,2520,430C2400,430,2280,430,2160,430C2040,430,1920,430,1800,430C1680,430,1560,430,1440,430C1320,430,1200,430,1080,430C960,430,840,430,720,430C600,430,480,430,360,430C240,430,120,430,60,430L0,430Z"/><defs><linearGradient id="sw-gradient-1" x1="0" x2="0" y1="1" y2="0"><stop stop-color="rgba(178, 178, 178, 0)" offset="0%"/><stop stop-color="rgba(219, 219, 219, 0.36)" offset="100%"/></linearGradient></defs><path style="transform:translate(0, 50px); opacity:0.9" fill="url(#sw-gradient-1)" d="M0,301L60,301C120,301,240,301,360,293.8C480,287,600,272,720,222.2C840,172,960,86,1080,78.8C1200,72,1320,143,1440,186.3C1560,229,1680,244,1800,265.2C1920,287,2040,315,2160,308.2C2280,301,2400,258,2520,200.7C2640,143,2760,72,2880,93.2C3000,115,3120,229,3240,293.8C3360,358,3480,373,3600,372.7C3720,373,3840,358,3960,329.7C4080,301,4200,258,4320,200.7C4440,143,4560,72,4680,100.3C4800,129,4920,258,5040,258C5160,258,5280,129,5400,121.8C5520,115,5640,229,5760,236.5C5880,244,6000,143,6120,114.7C6240,86,6360,129,6480,129C6600,129,6720,86,6840,71.7C6960,57,7080,72,7200,107.5C7320,143,7440,201,7560,229.3C7680,258,7800,258,7920,265.2C8040,272,8160,287,8280,265.2C8400,244,8520,186,8580,157.7L8640,129L8640,430L8580,430C8520,430,8400,430,8280,430C8160,430,8040,430,7920,430C7800,430,7680,430,7560,430C7440,430,7320,430,7200,430C7080,430,6960,430,6840,430C6720,430,6600,430,6480,430C6360,430,6240,430,6120,430C6000,430,5880,430,5760,430C5640,430,5520,430,5400,430C5280,430,5160,430,5040,430C4920,430,4800,430,4680,430C4560,430,4440,430,4320,430C4200,430,4080,430,3960,430C3840,430,3720,430,3600,430C3480,430,3360,430,3240,430C3120,430,3000,430,2880,430C2760,430,2640,430,2520,430C2400,430,2280,430,2160,430C2040,430,1920,430,1800,430C1680,430,1560,430,1440,430C1320,430,1200,430,1080,430C960,430,840,430,720,430C600,430,480,430,360,430C240,430,120,430,60,430L0,430Z"/><defs><linearGradient id="sw-gradient-2" x1="0" x2="0" y1="1" y2="0"><stop stop-color="rgba(178, 178, 178, 0)" offset="0%"/><stop stop-color="rgba(219, 219, 219, 0.36)" offset="100%"/></linearGradient></defs><path style="transform:translate(0, 100px); opacity:0.8" fill="url(#sw-gradient-2)" d="M0,258L60,222.2C120,186,240,115,360,71.7C480,29,600,14,720,35.8C840,57,960,115,1080,172C1200,229,1320,287,1440,286.7C1560,287,1680,229,1800,207.8C1920,186,2040,201,2160,236.5C2280,272,2400,330,2520,351.2C2640,373,2760,358,2880,301C3000,244,3120,143,3240,121.8C3360,100,3480,158,3600,193.5C3720,229,3840,244,3960,236.5C4080,229,4200,201,4320,186.3C4440,172,4560,172,4680,143.3C4800,115,4920,57,5040,86C5160,115,5280,229,5400,243.7C5520,258,5640,172,5760,164.8C5880,158,6000,229,6120,250.8C6240,272,6360,244,6480,193.5C6600,143,6720,72,6840,71.7C6960,72,7080,143,7200,157.7C7320,172,7440,129,7560,143.3C7680,158,7800,229,7920,250.8C8040,272,8160,244,8280,215C8400,186,8520,158,8580,143.3L8640,129L8640,430L8580,430C8520,430,8400,430,8280,430C8160,430,8040,430,7920,430C7800,430,7680,430,7560,430C7440,430,7320,430,7200,430C7080,430,6960,430,6840,430C6720,430,6600,430,6480,430C6360,430,6240,430,6120,430C6000,430,5880,430,5760,430C5640,430,5520,430,5400,430C5280,430,5160,430,5040,430C4920,430,4800,430,4680,430C4560,430,4440,430,4320,430C4200,430,4080,430,3960,430C3840,430,3720,430,3600,430C3480,430,3360,430,3240,430C3120,430,3000,430,2880,430C2760,430,2640,430,2520,430C2400,430,2280,430,2160,430C2040,430,1920,430,1800,430C1680,430,1560,430,1440,430C1320,430,1200,430,1080,430C960,430,840,430,720,430C600,430,480,430,360,430C240,430,120,430,60,430L0,430Z"/></svg>